<svg id="visual" viewBox="0 0 794 1123" width="794" height="1123" xmlns="http://www.w3.org/2000/svg" xmlns:xlink="http://www.w3.org/1999/xlink" version="1.1"><rect x="0" y="0" width="794" height="1123" fill="#FFFFFF"></rect><defs><linearGradient id="grad1_0" x1="0%" y1="100%" x2="100%" y2="0%"><stop offset="30%" stop-color="#ffffff" stop-opacity="1"></stop><stop offset="70%" stop-color="#ffffff" stop-opacity="1"></stop></linearGradient></defs><defs><linearGradient id="grad2_0" x1="0%" y1="100%" x2="100%" y2="0%"><stop offset="30%" stop-color="#ffffff" stop-opacity="1"></stop><stop offset="70%" stop-color="#ffffff" stop-opacity="1"></stop></linearGradient></defs><g transform="translate(794, 1123)"><path d="M-240.7 0C-227.4 -37.8 -214.1 -75.6 -195.7 -113C-177.3 -150.4 -153.8 -187.2 -120.3 -208.4C-86.9 -229.6 -43.4 -235.2 0 -240.7L0 0Z" fill="#9CAFAA"></path></g><g transform="translate(0, 0)"><path d="M240.7 0C215.9 31.2 191 62.3 174.1 100.5C157.1 138.7 148 183.9 120.3 208.4C92.6 233 46.3 236.8 0 240.7L0 0Z" fill="#9CAFAA"></path></g></svg>