<svg id="visual" viewBox="0 0 794 1123" width="794" height="1123" xmlns="http://www.w3.org/2000/svg" xmlns:xlink="http://www.w3.org/1999/xlink" version="1.1"><rect x="0" y="0" width="794" height="1123" fill="#D9E9CF"></rect><path d="M83 0L86.8 11.7C90.7 23.3 98.3 46.7 99.2 70C100 93.3 94 116.7 87.7 140.2C81.3 163.7 74.7 187.3 77.5 210.8C80.3 234.3 92.7 257.7 93.8 281C95 304.3 85 327.7 77.3 351C69.7 374.3 64.3 397.7 67.8 421C71.3 444.3 83.7 467.7 84.5 491.2C85.3 514.7 74.7 538.3 75.8 561.8C77 585.3 90 608.7 94 632C98 655.3 93 678.7 90.2 702C87.3 725.3 86.7 748.7 82 772C77.3 795.3 68.7 818.7 66.8 842C65 865.3 70 888.7 77.2 912.2C84.3 935.7 93.7 959.3 92.3 982.8C91 1006.3 79 1029.7 72.7 1053C66.3 1076.3 65.7 1099.7 65.3 1111.3L65 1123L0 1123L0 1111.3C0 1099.7 0 1076.3 0 1053C0 1029.7 0 1006.3 0 982.8C0 959.3 0 935.7 0 912.2C0 888.7 0 865.3 0 842C0 818.7 0 795.3 0 772C0 748.7 0 725.3 0 702C0 678.7 0 655.3 0 632C0 608.7 0 585.3 0 561.8C0 538.3 0 514.7 0 491.2C0 467.7 0 444.3 0 421C0 397.7 0 374.3 0 351C0 327.7 0 304.3 0 281C0 257.7 0 234.3 0 210.8C0 187.3 0 163.7 0 140.2C0 116.7 0 93.3 0 70C0 46.7 0 23.3 0 11.7L0 0Z" fill="#96A78D"></path></svg>