<svg id="visual" viewBox="0 0 794 1123" width="794" height="1123" xmlns="http://www.w3.org/2000/svg" xmlns:xlink="http://www.w3.org/1999/xlink" version="1.1"><g stroke-width="1" stroke-linejoin="bevel"><path d="M264.7 673.8L264.7 449.2L0 449.2Z" fill="#d6cabf" stroke="#d6cabf"></path><path d="M0 449.2L0 673.8L264.7 673.8Z" fill="#c9b59c" stroke="#c9b59c"></path><path d="M0 673.8L0 898.4L264.7 673.8Z" fill="#cbb8a0" stroke="#cbb8a0"></path><path d="M264.7 449.2L0 224.6L0 449.2Z" fill="#d6cabf" stroke="#d6cabf"></path><path d="M264.7 449.2L264.7 224.6L0 224.6Z" fill="#d4c5b6" stroke="#d4c5b6"></path><path d="M0 898.4L264.7 898.4L264.7 673.8Z" fill="#d8ccc3" stroke="#d8ccc3"></path><path d="M264.7 898.4L529.3 673.8L264.7 673.8Z" fill="#d4c5b6" stroke="#d4c5b6"></path><path d="M264.7 673.8L529.3 673.8L264.7 449.2Z" fill="#d5c7ba" stroke="#d5c7ba"></path><path d="M264.7 449.2L529.3 449.2L264.7 224.6Z" fill="#d9cfc7" stroke="#d9cfc7"></path><path d="M529.3 673.8L529.3 449.2L264.7 449.2Z" fill="#d2c2b2" stroke="#d2c2b2"></path><path d="M529.3 449.2L529.3 224.6L264.7 224.6Z" fill="#d4c5b6" stroke="#d4c5b6"></path><path d="M264.7 898.4L529.3 898.4L529.3 673.8Z" fill="#d9cfc7" stroke="#d9cfc7"></path><path d="M264.7 0L0 0L264.7 224.6Z" fill="#d8ccc3" stroke="#d8ccc3"></path><path d="M264.7 224.6L0 0L0 224.6Z" fill="#d5c7ba" stroke="#d5c7ba"></path><path d="M0 898.4L264.7 1123L264.7 898.4Z" fill="#cdbaa5" stroke="#cdbaa5"></path><path d="M264.7 898.4L264.7 1123L529.3 898.4Z" fill="#c9b59c" stroke="#c9b59c"></path><path d="M0 898.4L0 1123L264.7 1123Z" fill="#cbb8a0" stroke="#cbb8a0"></path><path d="M529.3 224.6L264.7 0L264.7 224.6Z" fill="#cdbaa5" stroke="#cdbaa5"></path><path d="M529.3 673.8L794 449.2L529.3 449.2Z" fill="#d8ccc3" stroke="#d8ccc3"></path><path d="M529.3 449.2L794 224.6L529.3 224.6Z" fill="#d0bfae" stroke="#d0bfae"></path><path d="M794 673.8L794 449.2L529.3 673.8Z" fill="#d2c2b2" stroke="#d2c2b2"></path><path d="M529.3 898.4L794 673.8L529.3 673.8Z" fill="#d6cabf" stroke="#d6cabf"></path><path d="M794 0L529.3 0L529.3 224.6Z" fill="#d9cfc7" stroke="#d9cfc7"></path><path d="M529.3 224.6L529.3 0L264.7 0Z" fill="#d0bfae" stroke="#d0bfae"></path><path d="M264.7 1123L529.3 1123L529.3 898.4Z" fill="#d8ccc3" stroke="#d8ccc3"></path><path d="M529.3 898.4L794 898.4L794 673.8Z" fill="#d9cfc7" stroke="#d9cfc7"></path><path d="M794 449.2L794 224.6L529.3 449.2Z" fill="#d4c5b6" stroke="#d4c5b6"></path><path d="M529.3 1123L794 898.4L529.3 898.4Z" fill="#d6cabf" stroke="#d6cabf"></path><path d="M794 224.6L794 0L529.3 224.6Z" fill="#c9b59c" stroke="#c9b59c"></path><path d="M529.3 1123L794 1123L794 898.4Z" fill="#d8ccc3" stroke="#d8ccc3"></path></g></svg>